<svg width="101" height="100" viewBox="0 0 101 100" fill="none" xmlns="http://www.w3.org/2000/svg">
<g id="apple">
<path id="Vector" d="M50.125 29.1666C54.2917 26.8333 61.7083 20.8333 70.9583 20.8333C76.3562 20.7324 81.5752 22.7694 85.4776 26.5001C89.3801 30.2309 91.6497 35.3529 91.7917 40.7499C91.7917 58.3333 79.2917 91.6666 66.7917 91.6666C61.5833 91.6666 56.375 87.2499 50.125 87.2499C43.875 87.2499 38.6667 91.6666 33.4583 91.6666C20.9583 91.6666 8.45833 58.3333 8.45833 40.7499C8.58947 35.3493 10.8557 30.2208 14.7605 26.4878C18.6654 22.7547 23.8906 20.7214 29.2917 20.8333C38.5417 20.8333 45.9583 26.8333 50.125 29.1666ZM50.125 29.1666C50.125 16.6666 45.9583 10.4166 41.7917 8.33325" stroke="url(#paint0_linear_54_1809)" stroke-width="8.33333" stroke-linecap="round" stroke-linejoin="round"/>
</g>
<defs>
<linearGradient id="paint0_linear_54_1809" x1="8.45833" y1="8.33325" x2="91.7917" y2="91.6666" gradientUnits="userSpaceOnUse">
<stop stop-color="#024636"/>
<stop offset="1" stop-color="#7FA26A"/>
</linearGradient>
</defs>
</svg>
