<svg width="101" height="100" viewBox="0 0 101 100" fill="none" xmlns="http://www.w3.org/2000/svg">
<g id="bike">
<path id="Vector" d="M50.625 72.9167V58.3334L38.125 45.8334L54.7916 33.3334L63.125 45.8334H71.4583M92.2916 72.9167C92.2916 80.9709 85.7625 87.5001 77.7083 87.5001C69.6542 87.5001 63.125 80.9709 63.125 72.9167C63.125 64.8626 69.6542 58.3334 77.7083 58.3334C85.7625 58.3334 92.2916 64.8626 92.2916 72.9167ZM38.125 72.9167C38.125 80.9709 31.5958 87.5001 23.5416 87.5001C15.4875 87.5001 8.95831 80.9709 8.95831 72.9167C8.95831 64.8626 15.4875 58.3334 23.5416 58.3334C31.5958 58.3334 38.125 64.8626 38.125 72.9167ZM67.2916 20.8334C67.2916 23.1346 65.4262 25.0001 63.125 25.0001C60.8238 25.0001 58.9583 23.1346 58.9583 20.8334C58.9583 18.5322 60.8238 16.6667 63.125 16.6667C65.4262 16.6667 67.2916 18.5322 67.2916 20.8334Z" stroke="url(#paint0_linear_54_1814)" stroke-width="8.33333" stroke-linecap="round" stroke-linejoin="round"/>
</g>
<defs>
<linearGradient id="paint0_linear_54_1814" x1="8.95831" y1="16.6667" x2="78.8664" y2="98.9115" gradientUnits="userSpaceOnUse">
<stop stop-color="#024636"/>
<stop offset="1" stop-color="#7FA26A"/>
</linearGradient>
</defs>
</svg>
