<svg width="40" height="40" viewBox="0 0 40 40" fill="none" xmlns="http://www.w3.org/2000/svg">
<g id="trees">
<path id="Vector" d="M16.6667 16.6667V17C17.7598 17.4204 18.6706 18.211 19.2404 19.2342C19.8102 20.2573 20.0027 21.4479 19.7845 22.5985C19.5663 23.7491 18.9512 24.7865 18.0463 25.53C17.1415 26.2735 16.0045 26.6757 14.8334 26.6667H8.33341C7.17636 26.6379 6.06513 26.2086 5.18926 25.452C4.31338 24.6954 3.72712 23.6584 3.53047 22.5178C3.33382 21.3772 3.53896 20.2037 4.11089 19.1975C4.68283 18.1913 5.58614 17.4146 6.66674 17V16.6667C6.66674 15.3406 7.19353 14.0688 8.13121 13.1312C9.06889 12.1935 10.3407 11.6667 11.6667 11.6667C12.9928 11.6667 14.2646 12.1935 15.2023 13.1312C16.14 14.0688 16.6667 15.3406 16.6667 16.6667Z" stroke="#FDFDFD" stroke-width="3.33333" stroke-linecap="round" stroke-linejoin="round"/>
<path id="Vector_2" d="M11.6667 26.6667V36.6667" stroke="#FDFDFD" stroke-width="3.33333" stroke-linecap="round" stroke-linejoin="round"/>
<path id="Vector_3" d="M21.6667 31.6667V36.6667" stroke="#FDFDFD" stroke-width="3.33333" stroke-linecap="round" stroke-linejoin="round"/>
<path id="Vector_4" d="M19.9999 31.6667H33.8333C34.1595 31.6621 34.4772 31.5619 34.7469 31.3784C35.0167 31.195 35.2268 30.9364 35.351 30.6347C35.4752 30.3331 35.5081 30.0016 35.4457 29.6814C35.3833 29.3611 35.2283 29.0663 34.9999 28.8333L29.9999 23.3333H30.4999C30.8261 23.3288 31.1438 23.2285 31.4136 23.0451C31.6834 22.8617 31.8934 22.6031 32.0176 22.3014C32.1419 21.9997 32.1748 21.6683 32.1124 21.348C32.05 21.0278 31.895 20.733 31.6666 20.5L26.6666 15H26.9999C27.3403 15.0307 27.682 14.956 27.9785 14.786C28.275 14.616 28.5122 14.359 28.6577 14.0497C28.8032 13.7405 28.8502 13.3939 28.7921 13.0571C28.7341 12.7203 28.5739 12.4094 28.3333 12.1667L21.6666 5L19.3333 7.5" stroke="#FDFDFD" stroke-width="3.33333" stroke-linecap="round" stroke-linejoin="round"/>
</g>
</svg>
